<?xml version="1.0" encoding="UTF-8"?><svg id="Ebene_2" xmlns="http://www.w3.org/2000/svg" xmlns:xlink="http://www.w3.org/1999/xlink" viewBox="0 0 418.09 369.44"><defs><style>.cls-1{opacity:.42;}.cls-2{fill:#a2a09b;}.cls-3{fill:none;}.cls-4{clip-path:url(#clippath);}</style><clipPath id="clippath"><rect class="cls-3" x="3.13" y="3.57" width="411.83" height="362.31" transform="translate(-3.19 3.68) rotate(-1)"/></clipPath></defs><g id="Ebene_1-2"><g id="Gruppe_273" class="cls-1"><g class="cls-4"><g id="Gruppe_maskieren_1"><path id="Pfad_30" class="cls-2" d="M410.9,280.78c-10.31,11.16-19.92,22.79-30.13,34.15-6.38,7.1-13.33,13.77-19.58,20.97-7.32-4.28-15.04-10.16-22.76-13.81-78.82-37.32-169.09-23.24-228.89,34.5-3.34,3.22-8.9,12.55-14.01,11.16l-39.56-24.69c-3.34-3.69-31.46-19.18-32.15-21.31-.34-1.04,1.45-3.95,2.24-4.7,22.93-21.86,36.91-46.7,42.35-76.42,7.61-41.54-9.6-89.39-39.39-122.61-6.99-7.79-15.66-13.96-23.88-20.82-1.26-1.05-3.05-.56-2.52-2.69L63.49,29.08c58.39,39.01,143.54,42.25,206.65,8.35,16.83-9.04,26.24-18.28,39.5-30.69.65-.6,5.8-4.79,6.18-4.95,1.29-.52,5.54.97,6.98,1.64,14.22,6.6,34.11,22.56,47.91,31.42,7.07,4.54,15.22,8.5,21.39,13.75-4.62,6.27-9.4,12.46-13.98,18.76-20.43,28.1-30.38,59.98-27.72,94.16,2.04,26.24,10.27,45.3,24.4,68.14.96,1.55,3.75,4.37,4.2,5.58.77,1.22.46.76.77,1.22.23.34,4.4,5.53,5.48,6.71,8.28,11.43,20.95,19.92,32.25,29.02.34,1.05-5.42,7.31-6.61,8.6"/></g></g></g></g></svg>